HIERARCHY
ROOT Hips
{
	OFFSET 0.000000 0.000000 0.000000
	CHANNELS 6 Xposition Yposition Zposition Xrotation Yrotation Zrotation
	JOINT Spine
	{
		OFFSET 0.000000 0.042231 0.063346
		CHANNELS 3 Xrotation Yrotation Zrotation
		JOINT Spine1
		{
			OFFSET 0.000000 0.014667 0.083179
			CHANNELS 3 Xrotation Yrotation Zrotation
			JOINT Spine2
			{
				OFFSET 0.000000 0.007361 0.084141
				CHANNELS 3 Xrotation Yrotation Zrotation
				JOINT Spine3
				{
					OFFSET 0.000000 0.000000 0.084462
					CHANNELS 3 Xrotation Yrotation Zrotation
					JOINT Neck
					{
						OFFSET 0.000000 -0.031673 0.221713
						CHANNELS 3 Xrotation Yrotation Zrotation
						JOINT Head
						{
							OFFSET 0.000000 -0.020167 0.114371
							CHANNELS 3 Xrotation Yrotation Zrotation
							End Site
							{
								OFFSET 0.000000 0.000000 0.000000
							}
						}
					}
					JOINT RightShoulder
					{
						OFFSET -0.029161 -0.048602 0.157471
						CHANNELS 3 Xrotation Yrotation Zrotation
						JOINT RightArm
						{
							OFFSET -0.144834 0.000000 0.000000
							CHANNELS 3 Xrotation Yrotation Zrotation
							JOINT RightForeArm
							{
								OFFSET -0.274949 0.000000 0.000000
								CHANNELS 3 Xrotation Yrotation Zrotation
								JOINT RightHand
								{
									OFFSET -0.254725 0.000000 0.000000
									CHANNELS 3 Xrotation Yrotation Zrotation
									JOINT RightHandEnd
									{
										OFFSET -0.068160 0.000000 0.000000
										CHANNELS 3 Xrotation Yrotation Zrotation
										End Site
										{
											OFFSET 0.000000 0.000000 0.000000
										}
									}
									JOINT RightHandThumb1
									{
										OFFSET -0.027264 -0.045440 -0.018176
										CHANNELS 3 Xrotation Yrotation Zrotation
										End Site
										{
											OFFSET 0.000000 0.000000 0.000000
										}
									}
								}
							}
						}
					}
					JOINT LeftShoulder
					{
						OFFSET 0.029161 -0.048602 0.157471
						CHANNELS 3 Xrotation Yrotation Zrotation
						JOINT LeftArm
						{
							OFFSET 0.144834 0.000000 0.000000
							CHANNELS 3 Xrotation Yrotation Zrotation
							JOINT LeftForeArm
							{
								OFFSET 0.274949 0.000000 0.000000
								CHANNELS 3 Xrotation Yrotation Zrotation
								JOINT LeftHand
								{
									OFFSET 0.254725 0.000000 0.000000
									CHANNELS 3 Xrotation Yrotation Zrotation
									JOINT LeftHandEnd
									{
										OFFSET 0.068160 0.000000 0.000000
										CHANNELS 3 Xrotation Yrotation Zrotation
										End Site
										{
											OFFSET 0.000000 0.000000 0.000000
										}
									}
									JOINT LeftHandThumb1
									{
										OFFSET 0.027264 -0.045440 -0.018176
										CHANNELS 3 Xrotation Yrotation Zrotation
										End Site
										{
											OFFSET 0.000000 0.000000 0.000000
										}
									}
								}
							}
						}
					}
				}
			}
		}
	}
	JOINT RightUpLeg
	{
		OFFSET -0.086512 0.000000 -0.025273
		CHANNELS 3 Xrotation Yrotation Zrotation
		JOINT RightLeg
		{
			OFFSET 0.000000 0.000000 -0.433119
			CHANNELS 3 Xrotation Yrotation Zrotation
			JOINT RightFoot
			{
				OFFSET 0.000000 0.000000 -0.404688
				CHANNELS 3 Xrotation Yrotation Zrotation
				JOINT RightToeBase
				{
					OFFSET 0.000000 -0.126496 -0.046041
					CHANNELS 3 Xrotation Yrotation Zrotation
					End Site
					{
						OFFSET 0.000000 0.000000 0.000000
					}
				}
			}
		}
	}
	JOINT LeftUpLeg
	{
		OFFSET 0.086512 0.000000 -0.025273
		CHANNELS 3 Xrotation Yrotation Zrotation
		JOINT LeftLeg
		{
			OFFSET 0.000000 0.000000 -0.433119
			CHANNELS 3 Xrotation Yrotation Zrotation
			JOINT LeftFoot
			{
				OFFSET 0.000000 0.000000 -0.404688
				CHANNELS 3 Xrotation Yrotation Zrotation
				JOINT LeftToeBase
				{
					OFFSET 0.000000 -0.126496 -0.046041
					CHANNELS 3 Xrotation Yrotation Zrotation
					End Site
					{
						OFFSET 0.000000 0.000000 0.000000
					}
				}
			}
		}
	}
}
MOTION
Frames: 4
Frame Time: 0.033333
-0.032187 1.023493 0.830364 0.195500 6.163100 74.036100 11.647000 1.986500 -0.595200 7.820200 0.252200 -0.096400 5.255500 0.383000 0.533800 0.505400 0.927700 -0.226900 -8.715900 -2.012500 -6.330400 -1.833100 -1.929900 -8.107100 5.486900 -1.991200 10.044500 38.117700 -33.345500 46.260000 0.000000 0.000000 28.964500 -15.850100 17.432500 7.889400 0.000000 0.000000 0.000000 0.000000 0.000000 0.000000 13.052600 -2.999100 -10.381500 36.699900 36.511100 -49.465300 0.000000 0.000000 -26.510800 -17.687100 -9.944000 -0.986200 0.000000 0.000000 0.000000 0.000000 0.000000 0.000000 -26.907000 9.336900 -2.111200 36.230400 0.000000 0.000000 -21.510700 3.150100 -15.591200 -6.990600 0.000000 0.000000 -39.169800 -4.364500 -13.348100 55.667400 0.000000 0.000000 -21.394500 9.359700 24.581600 -6.109500 0.000000 0.000000 
-0.014033 1.045180 0.838873 0.094300 4.506800 70.701600 10.822900 2.084600 -0.497300 7.307900 0.267300 -0.064500 4.708700 0.561800 0.818200 0.486800 0.933400 -0.249700 -6.641500 -2.130500 -6.118600 -2.465500 -1.419200 -8.399600 6.535900 -1.241800 8.561000 39.432400 -35.082900 46.069000 0.000000 0.000000 30.581700 -16.452200 17.460100 8.141500 0.000000 0.000000 0.000000 0.000000 0.000000 0.000000 13.648300 -3.011100 -9.601200 38.053000 36.423700 -50.549200 0.000000 0.000000 -26.874700 -18.619600 -10.174300 -1.039500 0.000000 0.000000 0.000000 0.000000 0.000000 0.000000 -22.757100 10.747000 -1.839100 30.755700 0.000000 0.000000 -19.002700 0.521500 -12.897900 -7.288000 0.000000 0.000000 -32.859400 -5.200100 -17.933000 49.432800 0.000000 0.000000 -19.574900 16.736800 21.683500 -7.347000 0.000000 0.000000 
0.005034 1.069492 0.845307 0.106600 3.008600 66.458800 9.994300 2.539200 -0.641200 6.815000 0.183100 -0.020300 4.014000 0.729400 1.309300 0.419100 0.904700 -0.244800 -4.522000 -2.198500 -5.536500 -2.939900 -0.742100 -8.317400 7.210800 -0.449500 7.395800 40.924500 -36.484700 46.335100 0.000000 0.000000 31.563100 -17.258700 17.416900 8.080400 0.000000 0.000000 0.000000 0.000000 0.000000 0.000000 14.173100 -2.915400 -8.625300 39.338700 36.775300 -51.555700 0.000000 0.000000 -27.121500 -19.331100 -10.511500 -1.021200 0.000000 0.000000 0.000000 0.000000 0.000000 0.000000 -19.152100 12.588500 -1.753900 24.892000 0.000000 0.000000 -15.427300 -3.210800 -8.883400 -6.705300 0.000000 0.000000 -26.463300 -5.736800 -18.322000 43.390100 0.000000 0.000000 -20.716600 24.438800 22.001600 -7.609700 0.000000 0.000000 
0.023612 1.096134 0.849739 0.950000 1.496800 61.802400 9.158100 3.985500 -1.071200 6.315800 0.122000 0.041700 3.156600 0.771900 1.634900 0.332200 0.815900 -0.209600 -2.695300 -2.370900 -4.885800 -3.089300 0.036600 -7.953200 7.411000 0.085500 6.429500 42.271400 -37.679700 46.691100 0.000000 0.000000 32.349100 -17.791100 17.074600 8.234600 0.000000 0.000000 0.000000 0.000000 0.000000 0.000000 14.678800 -3.030700 -7.689600 40.541600 37.371800 -52.478900 0.000000 0.000000 -27.325600 -19.810400 -10.741800 -0.954200 0.000000 0.000000 0.000000 0.000000 0.000000 0.000000 -16.345000 15.395500 -1.912600 18.333200 0.000000 0.000000 -10.939600 -5.009700 -4.725600 -5.778000 0.000000 0.000000 -21.054800 -4.630500 -13.985500 37.962900 0.000000 0.000000 -24.017000 25.497300 23.837400 -5.222800 0.000000 0.000000 
